<?xml version="1.0" encoding="UTF-8" ?>
<!DOCTYPE svg PUBLIC "-//W3C//DTD SVG 1.1//EN" "http://www.w3.org/Graphics/SVG/1.1/DTD/svg11.dtd">
<svg width="1254pt" height="1254pt" viewBox="0 0 1254 1254" version="1.1" xmlns="http://www.w3.org/2000/svg">
<g id="#1f1f1fff">
<path fill="currentColor" opacity="1.00" d=" M 583.19 125.51 C 599.83 117.04 618.90 113.08 637.52 114.89 C 649.53 116.21 661.33 119.62 672.15 125.02 C 763.66 175.05 854.86 225.66 946.36 275.72 C 999.88 305.33 1053.69 334.41 1107.23 363.98 C 1112.14 366.68 1117.20 369.13 1121.94 372.16 C 1133.74 380.04 1142.23 392.82 1144.48 406.88 C 1146.50 419.38 1144.54 432.87 1137.58 443.60 C 1133.26 450.68 1127.13 456.55 1120.27 461.14 C 1083.35 481.72 1046.53 502.47 1009.52 522.89 C 1019.00 529.65 1029.80 534.28 1039.58 540.59 C 1064.99 555.19 1090.46 569.70 1116.02 584.04 C 1130.56 591.44 1141.87 605.65 1144.44 621.92 C 1146.46 633.21 1144.91 645.27 1139.53 655.45 C 1135.18 663.95 1128.42 671.16 1120.52 676.48 C 1088.22 694.42 1056.24 712.95 1023.87 730.76 C 1019.94 733.22 1015.54 734.95 1011.98 737.96 C 1029.75 747.30 1046.64 758.22 1064.26 767.85 C 1082.81 778.22 1101.10 789.03 1119.63 799.43 C 1132.75 807.12 1142.09 820.94 1144.52 835.94 C 1147.74 853.71 1141.41 872.84 1128.24 885.20 C 1122.48 891.62 1114.44 894.98 1107.18 899.27 C 1071.76 919.45 1036.24 939.44 1000.92 959.78 C 991.35 964.70 982.35 970.61 972.93 975.80 C 879.90 1029.08 787.00 1082.58 693.99 1135.89 C 684.24 1140.68 675.68 1147.73 665.30 1151.21 C 641.44 1160.66 613.87 1160.84 590.17 1150.78 C 583.90 1148.37 578.41 1144.46 572.57 1141.24 C 554.59 1131.35 537.08 1120.64 519.14 1110.67 C 485.90 1091.18 452.25 1072.40 419.04 1052.85 C 400.26 1042.44 381.79 1031.47 363.09 1020.91 C 337.93 1006.38 312.57 992.18 287.54 977.42 C 268.98 967.01 250.40 956.65 232.08 945.84 C 215.64 937.09 199.73 927.39 183.47 918.32 C 169.38 910.48 155.51 902.22 141.41 894.38 C 125.98 886.95 114.31 871.90 111.13 855.06 C 106.51 831.95 119.25 806.72 140.63 796.75 C 166.33 782.52 191.74 767.77 217.32 753.31 C 226.22 748.32 234.85 742.84 244.01 738.30 C 243.94 737.90 243.80 737.10 243.73 736.70 C 240.87 735.53 238.22 733.95 235.61 732.33 C 206.17 716.15 177.02 699.46 147.74 682.99 C 140.61 679.00 132.88 675.74 127.04 669.84 C 122.00 664.50 117.17 658.73 114.44 651.83 C 107.85 637.73 109.11 620.76 116.14 607.07 C 120.04 599.98 125.50 593.76 131.92 588.84 C 136.54 585.25 142.07 583.18 147.10 580.26 C 180.85 561.30 214.70 542.51 248.15 523.03 C 217.73 506.09 187.52 488.77 157.11 471.81 C 150.00 467.41 142.46 463.77 135.14 459.75 C 124.33 452.58 115.71 441.71 112.11 429.16 C 106.54 409.42 113.62 386.75 129.59 373.82 C 133.43 370.40 137.92 367.85 142.56 365.67 C 243.22 311.14 343.62 256.13 444.23 201.52 C 478.43 182.58 512.86 164.07 547.11 145.23 C 558.94 138.30 571.30 132.33 583.19 125.51 M 618.29 155.97 C 613.33 156.96 608.34 158.13 603.75 160.31 C 576.17 175.55 548.40 190.45 520.78 205.64 C 437.03 251.73 352.99 297.33 268.80 342.61 C 232.13 362.23 195.78 382.45 158.87 401.63 C 157.52 402.34 156.18 403.07 154.95 403.97 C 148.18 408.65 148.18 420.45 155.14 424.95 C 177.82 438.00 200.77 450.60 223.51 463.54 C 258.89 483.57 294.35 503.47 329.94 523.13 C 346.28 532.54 362.80 541.63 379.25 550.85 C 386.75 555.14 394.13 559.64 401.84 563.56 C 468.69 601.24 535.58 638.83 602.11 677.07 C 610.99 681.57 621.01 683.93 630.98 683.56 C 639.32 682.92 647.60 680.73 655.15 677.11 C 664.74 671.41 674.34 665.71 684.15 660.38 C 726.60 636.01 769.16 611.85 811.75 587.72 C 825.64 580.47 839.05 572.34 852.85 564.93 C 865.06 557.64 877.80 551.31 890.04 544.09 C 959.79 505.24 1029.39 466.11 1099.14 427.27 C 1105.16 424.24 1107.59 415.95 1104.24 410.11 C 1102.46 405.96 1097.89 404.51 1094.27 402.47 C 1068.80 388.22 1042.88 374.78 1017.43 360.51 C 1008.31 355.13 998.68 350.67 989.56 345.29 C 965.22 331.94 940.74 318.85 916.46 305.37 C 879.60 285.34 843.02 264.76 806.14 244.76 C 789.41 235.42 772.70 226.02 755.75 217.09 C 722.17 198.16 688.20 179.97 654.46 161.33 C 643.42 155.74 630.47 153.91 618.29 155.97 M 286.34 547.21 C 282.06 549.65 277.90 552.29 273.59 554.67 C 239.87 573.49 206.40 592.75 172.55 611.33 C 166.74 614.52 160.79 617.52 155.17 621.04 C 148.17 625.48 148.19 637.40 155.29 641.71 C 198.76 665.90 241.95 690.60 285.48 714.70 C 337.01 743.76 388.50 772.91 439.88 802.25 C 494.22 833.28 548.51 864.41 603.04 895.13 C 620.88 903.55 642.99 902.49 659.62 891.72 C 669.38 886.10 679.23 880.65 689.03 875.11 C 729.40 851.74 770.13 828.99 810.58 805.77 C 848.60 783.99 886.68 762.34 924.91 740.96 C 983.37 708.17 1041.75 675.24 1100.10 642.25 C 1107.83 637.67 1107.70 624.42 1099.58 620.29 C 1056.18 595.35 1012.44 571.00 968.96 546.21 C 963.02 548.43 957.77 552.23 952.22 555.27 C 932.13 565.98 912.54 577.59 892.59 588.55 C 843.76 616.05 794.97 643.60 746.27 671.33 C 722.28 684.97 698.08 698.25 674.16 712.02 C 650.30 724.27 621.38 726.98 596.04 717.71 C 584.69 714.08 574.75 707.35 564.45 701.55 C 539.60 687.41 514.78 673.23 489.85 659.25 C 473.54 649.65 456.73 640.93 440.40 631.36 C 420.45 620.04 400.46 608.79 380.46 597.56 C 350.71 580.52 320.58 564.16 290.76 547.22 C 289.42 546.18 287.68 546.18 286.34 547.21 M 283.31 761.23 C 276.74 764.88 270.37 768.86 263.83 772.57 C 228.81 792.23 194.16 812.56 158.92 831.82 C 156.60 833.19 154.06 834.48 152.56 836.82 C 149.65 840.80 149.49 846.25 150.92 850.82 C 153.72 857.61 161.48 859.55 167.19 863.15 C 225.61 896.83 284.66 929.40 342.95 963.29 C 356.47 970.57 369.62 978.51 382.94 986.14 C 418.67 1006.86 454.73 1026.99 490.50 1047.66 C 525.74 1068.12 561.15 1088.28 596.41 1108.72 C 613.71 1120.18 637.22 1121.05 655.61 1111.69 C 663.20 1106.80 671.23 1102.68 678.99 1098.06 C 714.00 1078.22 748.72 1057.88 783.75 1038.05 C 819.54 1017.44 855.43 997.00 891.11 976.19 C 898.83 971.97 906.51 967.65 914.03 963.07 C 939.36 948.87 964.44 934.24 989.74 919.98 C 1026.17 899.41 1062.51 878.66 1098.85 857.93 C 1106.95 853.21 1108.15 840.15 1100.59 834.37 C 1093.94 830.28 1087.25 826.25 1080.40 822.52 C 1071.62 817.60 1063.16 812.12 1054.15 807.61 C 1026.87 791.78 999.43 776.22 971.97 760.71 C 969.18 761.03 966.92 763.13 964.43 764.31 C 957.47 768.47 950.48 772.54 943.23 776.19 C 890.10 806.73 836.67 836.74 783.63 867.44 C 767.35 876.47 751.14 885.65 735.05 895.03 C 716.72 905.26 698.49 915.68 680.15 925.89 C 669.33 933.05 656.67 936.78 644.01 939.05 C 627.44 942.40 610.13 940.03 594.27 934.58 C 584.10 931.17 575.26 924.99 565.83 920.05 C 551.46 912.23 537.41 903.83 523.11 895.90 C 511.24 889.60 499.93 882.32 488.16 875.86 C 453.34 856.43 418.91 836.32 384.20 816.68 C 352.89 798.46 321.24 780.84 289.78 762.88 C 287.76 761.96 285.51 759.46 283.31 761.23 Z" />
</g>
</svg>
