<?xml version="1.0" encoding="UTF-8" standalone="no"?>
<svg
   width="1254pt"
   height="1254pt"
   viewBox="0 0 1254 1254"
   version="1.1"
   id="svg2"
   sodipodi:docname="centrado.svg"
   inkscape:version="1.4.2 (f4327f4, 2025-05-13)"
   xmlns:inkscape="http://www.inkscape.org/namespaces/inkscape"
   xmlns:sodipodi="http://sodipodi.sourceforge.net/DTD/sodipodi-0.dtd"
   xmlns="http://www.w3.org/2000/svg"
   xmlns:svg="http://www.w3.org/2000/svg">
  <defs
     id="defs2" />
  <sodipodi:namedview
     id="namedview2"
     pagecolor="#ffffff"
     bordercolor="#000000"
     borderopacity="0.25"
     inkscape:showpageshadow="2"
     inkscape:pageopacity="0.0"
     inkscape:pagecheckerboard="0"
     inkscape:deskcolor="#d1d1d1"
     inkscape:document-units="pt"
     inkscape:zoom="0.46232057"
     inkscape:cx="834.9185"
     inkscape:cy="836"
     inkscape:window-width="1920"
     inkscape:window-height="991"
     inkscape:window-x="-9"
     inkscape:window-y="-9"
     inkscape:window-maximized="1"
     inkscape:current-layer="svg2" />
  <g
     id="centrado"
     transform="matrix(1.6887119,0,0,1.6887119,-430.2582,-424.13507)">
    <path
       fill="currentColor"
       opacity="1"
       d="m 611.57,283.57 c 8.6,-6.73 22.25,-5.98 29.83,1.98 3.7,3.86 6.28,8.97 6.48,14.38 0.37,15.48 -0.39,31 0.39,46.46 69.11,5.05 134.95,39.96 179.64,92.65 19.99,23.14 35.51,49.94 46.97,78.24 9.21,24.56 15.89,50.28 17.6,76.51 8.85,-0.31 17.67,0.44 26.52,0.24 8.18,0.34 16.66,-1.58 24.55,1.4 8.34,3.64 14.98,12.19 14.41,21.59 0.82,12.84 -11.33,24.19 -23.94,23.61 -13.83,-0.02 -27.65,0.08 -41.47,-0.04 -4.05,48.17 -21.48,95.05 -49.6,134.36 -23.04,32.41 -53.2,59.75 -87.83,79.32 -32.71,18.47 -69.36,30.38 -106.87,33.26 -0.71,14.47 -0.11,28.98 -0.35,43.47 0.01,5.24 -2.46,10.14 -5.78,14.08 -5.42,6.44 -14.79,9.15 -22.83,6.7 -9.73,-2.21 -16.62,-12.01 -16.59,-21.79 0.01,-14.16 -0.03,-28.32 0.04,-42.48 -31.41,-2.19 -62.13,-11.2 -90.51,-24.67 -29.41,-14.16 -56.35,-33.52 -78.82,-57.22 -42.28,-44.65 -69.85,-103.58 -75,-164.99 -14.46,0.08 -28.93,-0.05 -43.4,0 -6.71,0.21 -13.33,-2.99 -17.79,-7.92 -6.72,-7.47 -7.63,-19.26 -2.37,-27.77 4.74,-7.93 14.23,-11.73 23.22,-11.23 13.49,0.7 26.99,0.03 40.49,0.08 2.71,-33.3 12.44,-65.94 27.32,-95.82 16.06,-32.95 38.54,-62.87 66.14,-87.02 31.4,-27.62 69.52,-47.33 109.93,-57.9 13.42,-3.08 27.03,-5.63 40.77,-6.67 -0.06,-14.78 0.02,-29.57 -0.07,-44.35 0,-7.08 3.44,-14.02 8.92,-18.46 m 36.69,111.91 c -0.54,9.52 -0.26,19.06 -0.35,28.59 -0.01,4.06 -1.21,8.06 -3.36,11.49 -4.91,8.2 -15.44,12.53 -24.68,10.07 -9.73,-2.1 -17.14,-11.72 -17.17,-21.61 -0.02,-9.51 0,-19.02 0.01,-28.53 -42.31,4.81 -83.01,22.15 -115.77,49.34 -30.58,24.9 -53.9,58.38 -67.49,95.34 -6.26,17.26 -10.93,35.27 -12.41,53.61 8.65,-0.09 17.3,0.72 25.94,0 7.9,-0.69 16.67,0.92 22.11,7.16 6.46,6.09 8.35,15.95 5.47,24.21 -3.33,9.57 -13.48,16.13 -23.56,15.52 -10.09,-0.1 -20.18,0.03 -30.27,-0.03 3.75,34.01 14.93,67.37 33.58,96.13 19.7,31.17 47.25,57.29 79.45,75.28 25.39,14.61 53.93,23.34 82.98,26.67 -0.08,-10.25 0.01,-20.51 -0.07,-30.77 -0.23,-9.12 5.41,-18.19 13.91,-21.65 8.08,-3.42 18.34,-1.74 24.46,4.69 3.73,3.73 6.6,8.66 6.81,14.04 0.38,11.24 -0.28,22.51 0.4,33.74 23.12,-2.74 45.89,-8.81 67.06,-18.54 43.87,-20.11 80.66,-55.01 103.49,-97.47 13.83,-25.32 22.29,-53.46 25.46,-82.1 -11.1,-0.02 -22.2,0.02 -33.29,-0.02 -6.94,0.2 -13.77,-3.17 -18.23,-8.4 -7.86,-9.28 -7.05,-25.04 2.72,-32.69 6.5,-6.36 16.14,-6.15 24.58,-5.73 7.97,0.69 15.94,-0.34 23.92,-0.05 -0.8,-11.44 -3.01,-22.75 -6.05,-33.79 -8.36,-32.57 -24.63,-62.92 -46.41,-88.48 -22.13,-25.65 -50.32,-45.96 -81.38,-59.43 -19.67,-8.54 -40.65,-13.75 -61.86,-16.59 z"
       id="path1" />
    <path
       fill="currentColor"
       opacity="1"
       d="m 612.61,554.84 c 6.37,-1.15 12.91,-1.81 19.35,-0.71 14.78,0.95 28.4,8.84 38.5,19.36 10.42,11.55 17.49,26.68 17.29,42.44 1.01,29.41 -21.54,57.56 -50.4,63.21 -15.42,3.55 -31.99,0.16 -45.36,-8.08 -17.12,-10.73 -28.97,-29.82 -30.02,-50.1 -1.83,-24.57 12.63,-49.18 34.53,-60.28 5.06,-2.69 10.5,-4.63 16.11,-5.84 z"
       id="path2" />
  </g>
</svg>
