<?xml version="1.0" encoding="UTF-8" ?>
<!DOCTYPE svg PUBLIC "-//W3C//DTD SVG 1.1//EN" "http://www.w3.org/Graphics/SVG/1.1/DTD/svg11.dtd">
<svg width="1254pt" height="1254pt" viewBox="0 0 1254 1254" version="1.1" xmlns="http://www.w3.org/2000/svg">
<g id="#222221ff">
<path fill="currentColor" opacity="1.00" d=" M 606.46 205.19 C 607.71 195.24 616.91 187.11 626.94 187.02 C 638.64 186.07 649.31 196.45 649.45 208.03 C 649.47 409.68 649.38 611.33 649.49 812.99 C 649.47 815.87 649.55 818.76 649.82 821.65 C 655.08 818.06 658.92 812.86 663.60 808.60 C 681.08 790.74 698.84 773.17 716.47 755.46 C 735.04 737.03 753.39 718.39 772.08 700.09 C 787.33 684.33 803.32 669.32 818.48 653.48 C 824.14 647.82 829.74 642.09 835.44 636.47 C 841.52 630.44 851.19 629.20 859.07 631.98 C 867.76 635.29 873.39 644.81 872.50 654.03 C 872.31 659.36 869.81 664.36 865.98 668.02 C 848.21 685.25 831.01 703.06 813.46 720.51 C 779.15 755.18 744.19 789.20 710.02 824.02 C 688.44 845.44 666.85 866.86 645.33 888.35 C 638.62 895.15 627.63 896.96 618.98 893.03 C 613.36 890.29 609.37 885.30 604.96 881.04 C 557.41 833.59 510.11 785.88 462.15 738.85 C 439.64 716.70 417.29 694.38 394.90 672.11 C 391.18 668.47 386.88 664.99 385.19 659.88 C 381.80 650.59 385.44 639.16 393.88 633.87 C 402.21 628.34 414.33 629.54 421.46 636.54 C 433.59 649.07 446.30 661.02 458.53 673.47 C 486.45 701.21 514.11 729.23 542.40 756.60 C 552.88 767.45 563.89 777.78 574.31 788.69 C 580.42 794.91 586.46 801.21 592.80 807.20 C 597.31 811.39 600.96 816.51 606.03 820.09 C 606.68 784.74 606.05 749.36 606.28 714.00 C 606.22 549.67 606.24 385.34 606.25 221.00 C 606.28 215.73 605.89 210.44 606.46 205.19 Z" />
<path fill="currentColor" opacity="1.00" d=" M 1101.40 782.61 C 1108.96 781.19 1117.10 784.06 1122.10 789.91 C 1125.81 793.97 1127.41 799.55 1127.38 804.98 C 1127.23 848.32 1127.40 891.66 1127.32 935.00 C 1127.59 947.05 1126.87 959.21 1123.82 970.92 C 1119.77 985.98 1113.67 1000.75 1104.44 1013.41 C 1085.17 1041.54 1053.63 1061.12 1019.75 1065.39 C 1007.88 1066.85 995.91 1066.23 984.00 1066.36 C 747.33 1066.33 510.66 1066.35 274.00 1066.38 C 259.98 1066.08 245.84 1067.17 231.93 1064.91 C 199.99 1060.00 170.84 1041.19 151.78 1015.31 C 142.01 1002.73 136.09 987.70 131.56 972.56 C 126.51 954.47 127.96 935.55 127.73 917.00 C 127.74 879.33 127.75 841.65 127.71 803.98 C 127.19 791.81 139.03 781.16 151.03 782.52 C 161.66 782.91 171.35 792.18 171.39 802.98 C 171.43 844.98 171.36 886.99 171.46 929.00 C 171.53 936.08 171.03 943.19 171.84 950.25 C 173.62 967.12 180.60 983.45 191.73 996.26 C 202.79 1008.28 217.41 1017.29 233.53 1020.49 C 247.17 1023.40 261.17 1022.07 275.00 1022.34 C 516.67 1022.38 758.34 1022.38 1000.01 1022.36 C 1010.98 1022.67 1022.04 1021.07 1032.42 1017.50 C 1045.90 1012.26 1058.23 1003.53 1066.80 991.79 C 1077.60 977.99 1083.17 960.46 1083.65 943.05 C 1083.55 901.36 1083.74 859.68 1083.64 817.99 C 1083.69 812.32 1083.19 806.62 1083.81 800.97 C 1084.73 791.85 1092.48 784.16 1101.40 782.61 Z" />
</g>
</svg>
