<?xml version="1.0" encoding="UTF-8" ?>
<!DOCTYPE svg PUBLIC "-//W3C//DTD SVG 1.1//EN" "http://www.w3.org/Graphics/SVG/1.1/DTD/svg11.dtd">
<svg width="1254pt" height="1254pt" viewBox="0 0 1254 1254" version="1.1" xmlns="http://www.w3.org/2000/svg">
<g id="#fbfbfbff">
<path fill="#ffffff" opacity="1.00" d=" M 295.24 279.22 C 304.07 265.64 319.84 256.95 336.04 256.83 C 528.02 256.84 720.00 256.82 911.98 256.82 C 919.02 256.61 926.21 257.01 932.87 259.52 C 945.87 263.94 956.41 274.25 962.13 286.63 C 965.23 293.62 966.43 301.34 966.34 308.96 C 966.34 502.95 966.32 696.94 966.34 890.93 C 966.58 899.34 965.15 907.93 961.38 915.51 C 953.65 931.53 936.92 943.54 918.90 943.86 C 913.61 944.32 908.28 944.40 903.00 943.96 C 897.02 944.27 890.98 944.31 885.00 943.99 C 876.98 944.46 868.91 944.19 860.88 944.12 C 859.29 943.76 857.68 943.75 856.11 944.11 C 830.07 944.20 804.02 944.41 777.98 943.99 C 752.99 944.50 727.96 944.08 702.96 944.22 C 696.30 944.07 689.63 944.53 683.00 943.95 C 653.69 944.55 624.32 944.05 594.98 944.21 C 590.32 944.07 585.63 944.53 581.00 943.92 C 568.70 944.63 556.33 944.01 544.01 944.22 C 530.31 944.03 516.60 944.60 502.92 943.88 C 500.23 944.08 497.53 944.28 494.84 944.24 L 494.11 943.80 C 466.44 944.63 438.73 944.03 411.05 944.24 C 389.31 944.25 367.57 944.12 345.84 944.23 L 345.12 943.79 C 338.05 943.65 330.82 944.45 323.94 942.42 C 303.35 937.19 287.21 917.46 287.19 896.06 C 287.19 700.71 287.17 505.36 287.20 310.02 C 286.84 299.31 289.01 288.11 295.24 279.22 M 331.80 313.98 C 331.83 337.66 331.76 361.35 331.97 385.01 C 331.61 401.00 331.93 417.01 331.81 433.01 C 332.27 446.67 331.48 460.34 331.96 474.00 C 331.62 492.00 331.92 510.01 331.82 528.01 C 331.94 551.67 331.56 575.35 332.00 599.00 C 331.73 618.62 331.63 638.29 332.05 657.91 C 331.85 681.91 331.50 705.97 332.10 729.96 C 331.81 732.97 331.65 736.00 332.03 739.01 C 332.56 743.34 331.63 747.67 331.80 752.01 C 331.93 774.00 331.60 796.00 331.98 817.98 C 331.59 840.98 331.93 864.00 331.79 887.01 C 331.42 892.99 336.86 898.54 342.93 897.73 C 530.28 897.76 717.63 897.75 904.98 897.74 C 909.37 897.54 914.65 898.62 917.99 894.95 C 921.98 891.03 921.24 885.09 921.23 880.02 C 921.20 691.33 921.25 502.65 921.20 313.96 C 921.11 310.38 919.50 306.68 916.38 304.74 C 913.06 302.46 908.83 303.42 905.07 303.24 C 717.37 303.25 529.68 303.24 341.98 303.25 C 336.14 302.86 331.61 308.41 331.80 313.98 Z" />
<path fill="#ffffff" opacity="1.00" d=" M 590.10 364.11 C 588.24 354.83 594.35 343.99 604.06 342.48 C 617.39 342.24 630.72 342.52 644.05 342.35 C 650.97 341.91 657.57 346.62 660.15 352.93 C 661.96 356.98 662.07 361.58 661.24 365.89 C 659.93 370.86 656.54 374.94 652.68 378.19 C 652.98 383.99 651.64 390.05 653.48 395.66 C 655.44 400.41 659.70 404.35 664.86 405.24 C 669.27 405.78 673.60 404.40 678.01 404.52 C 690.68 404.33 702.85 408.27 715.12 410.84 C 730.07 414.16 745.52 415.95 760.81 414.24 C 768.92 413.37 777.03 411.26 784.17 407.21 C 788.19 405.03 790.86 401.10 794.79 398.78 C 799.23 395.88 804.80 394.69 810.02 395.81 C 818.31 397.45 825.28 404.52 826.68 412.88 C 828.67 421.46 824.63 430.56 818.07 436.10 C 810.62 441.75 802.59 446.84 793.70 449.89 C 773.61 456.82 751.98 459.23 730.87 456.74 C 712.31 454.66 694.26 449.59 676.62 443.63 C 670.89 441.30 663.33 442.35 659.66 447.70 C 655.56 452.88 657.11 459.85 656.87 465.95 C 657.11 469.99 656.31 474.20 657.58 478.14 C 658.78 481.38 661.44 484.14 664.74 485.27 C 683.62 492.24 702.48 499.28 721.56 505.70 C 739.08 511.45 757.73 513.98 776.12 512.11 C 786.34 510.63 796.89 508.56 805.58 502.65 C 810.70 499.19 815.21 494.59 817.91 488.98 C 820.65 483.17 826.34 479.16 832.48 477.64 C 839.50 476.09 847.14 478.76 851.81 484.19 C 857.06 490.32 858.95 499.31 856.16 506.95 C 851.47 521.37 840.19 532.71 827.39 540.36 C 813.74 548.39 798.50 553.54 783.00 556.53 C 763.45 560.22 743.19 558.21 724.23 552.52 C 704.77 546.50 686.60 537.15 668.07 528.82 C 662.10 526.03 655.58 531.74 656.43 537.95 C 656.50 545.96 656.52 553.98 656.48 562.00 C 656.43 566.44 658.78 571.16 662.94 573.06 C 681.02 581.95 698.93 591.15 717.18 599.69 C 730.90 606.18 744.83 613.02 760.10 614.87 C 776.91 616.90 794.63 615.70 810.13 608.37 C 815.41 605.56 820.36 601.98 824.41 597.56 C 827.94 593.84 829.04 588.40 833.08 585.10 C 837.23 581.61 842.48 578.92 848.04 579.26 C 857.47 579.05 866.28 586.66 867.62 595.99 C 869.24 602.26 867.25 608.77 864.51 614.43 C 858.53 626.75 848.61 637.04 836.85 643.98 C 824.62 651.57 810.93 656.45 797.04 659.97 C 783.34 663.45 768.94 663.38 755.03 661.37 C 735.51 658.30 717.82 648.90 701.17 638.70 C 689.74 631.87 678.43 624.85 667.18 617.74 C 665.08 616.43 662.60 614.77 660.06 615.91 C 657.16 616.87 655.58 620.04 655.60 622.95 C 655.56 630.30 655.69 637.65 655.64 645.00 C 655.50 649.93 658.81 654.51 663.07 656.74 C 676.77 663.27 690.12 670.69 702.48 679.52 C 713.32 687.21 721.80 697.51 730.79 707.17 C 740.83 718.02 754.25 726.08 769.06 728.05 C 786.27 730.02 805.09 726.01 818.00 713.90 C 821.71 710.85 823.32 706.09 826.87 702.89 C 830.58 699.11 835.81 697.03 841.05 696.61 C 849.05 696.65 856.83 701.76 859.79 709.25 C 862.43 715.36 862.06 722.48 859.26 728.47 C 854.10 738.95 846.24 748.07 836.63 754.71 C 824.49 763.41 810.26 768.77 795.80 772.18 C 770.44 777.94 743.43 771.22 721.85 757.24 C 706.63 747.82 694.99 733.92 683.89 720.13 C 677.15 713.18 671.17 705.20 662.81 700.08 C 658.50 697.47 652.62 701.09 652.58 706.03 C 652.36 715.33 652.59 724.65 652.55 733.96 C 652.40 736.72 653.75 739.31 655.83 741.07 C 661.17 745.89 664.48 752.77 665.07 759.93 C 665.44 767.84 661.32 775.35 655.49 780.47 C 653.03 782.55 651.59 785.71 651.73 788.94 C 651.79 793.30 651.58 797.68 651.85 802.04 C 652.01 803.91 653.62 804.96 655.03 805.92 C 661.13 809.76 664.79 816.93 664.90 824.08 C 664.84 831.14 661.25 838.44 654.92 841.88 C 651.88 843.51 648.46 844.54 645.00 844.44 C 631.68 844.38 618.36 844.49 605.05 844.39 C 596.94 844.18 589.85 837.99 587.50 830.41 C 584.72 821.54 588.30 811.18 596.05 806.01 C 598.60 804.63 599.78 801.83 599.41 799.01 C 599.01 793.16 600.85 786.30 596.50 781.51 C 592.37 777.33 588.29 772.71 586.88 766.84 C 584.42 758.61 587.16 749.28 593.17 743.26 C 595.57 740.89 598.67 738.63 598.65 734.89 C 598.78 725.60 598.72 716.31 598.68 707.03 C 598.72 703.02 595.84 699.36 591.87 698.66 C 589.34 699.29 586.82 700.09 584.77 701.78 C 575.00 709.30 566.81 718.66 559.33 728.41 C 547.77 742.51 534.43 755.75 517.80 763.70 C 504.84 770.19 490.52 773.82 476.05 774.36 C 458.44 774.57 441.12 769.38 425.57 761.36 C 411.15 753.81 398.29 742.15 392.08 726.84 C 389.10 719.43 390.07 710.35 395.18 704.11 C 398.95 699.36 405.04 696.87 411.00 696.65 C 417.63 697.13 424.20 700.56 427.74 706.31 C 432.59 714.89 441.08 720.99 450.19 724.43 C 464.37 729.24 480.34 730.34 494.47 724.70 C 509.35 719.19 520.38 707.18 530.65 695.58 C 546.24 678.27 566.70 666.25 587.85 656.97 C 592.56 655.04 596.22 650.23 596.10 645.04 C 596.02 638.02 596.11 630.99 596.07 623.97 C 596.21 620.50 594.42 616.72 590.97 615.57 C 588.75 615.11 586.33 615.24 584.34 616.41 C 566.67 625.84 549.67 636.45 532.15 646.15 C 514.84 656.17 495.21 663.05 475.01 662.74 C 458.02 663.30 441.42 658.05 426.16 650.98 C 415.99 645.63 405.79 639.69 398.18 630.91 C 391.61 623.56 386.00 614.91 384.06 605.11 C 382.29 596.58 385.78 586.80 393.44 582.27 C 401.18 577.11 412.27 578.70 418.72 585.24 C 422.81 588.85 423.95 594.53 427.72 598.40 C 437.22 608.70 451.17 613.20 464.71 614.97 C 481.55 617.11 499.14 614.79 514.57 607.58 C 533.01 598.70 551.21 589.33 569.79 580.73 C 576.03 577.95 582.41 575.49 588.55 572.49 C 592.47 570.53 595.10 566.41 595.19 562.03 C 595.24 554.02 595.20 546.00 595.22 537.99 C 595.31 533.73 592.58 528.92 588.05 528.38 C 583.69 527.65 579.91 530.30 576.08 531.90 C 555.92 541.11 535.73 550.87 513.93 555.57 C 495.23 559.81 475.50 559.36 457.04 554.14 C 440.94 549.58 424.82 543.11 412.29 531.70 C 407.20 527.35 402.89 522.05 399.81 516.09 C 397.10 511.10 394.65 505.72 394.60 499.94 C 394.10 490.54 400.19 480.98 409.28 478.12 C 417.52 475.35 427.14 478.64 432.30 485.54 C 434.84 488.87 435.89 493.15 438.88 496.17 C 445.90 504.32 456.29 508.59 466.62 510.70 C 484.36 514.39 502.85 512.81 520.32 508.40 C 542.77 501.85 564.47 493.02 586.54 485.33 C 591.03 483.52 594.47 478.91 594.44 473.99 C 594.44 468.00 594.37 462.01 594.43 456.03 C 594.53 452.02 592.39 448.19 589.38 445.66 C 585.18 442.16 579.13 441.72 574.06 443.33 C 547.23 452.73 518.72 459.75 490.10 456.94 C 470.96 455.01 451.50 449.76 435.98 437.94 C 430.84 434.61 427.13 429.30 425.43 423.45 C 422.64 413.65 427.30 402.06 436.64 397.62 C 444.75 393.16 455.47 395.56 461.48 402.42 C 467.48 409.84 477.22 412.45 486.25 413.90 C 507.34 417.00 528.41 412.04 548.85 407.26 C 558.43 405.01 568.32 404.14 578.14 404.73 L 578.81 405.26 C 581.81 405.33 584.94 405.84 587.85 404.80 C 593.19 403.12 597.33 398.27 598.42 392.82 C 598.64 388.01 598.62 383.17 598.49 378.36 C 594.45 374.51 590.75 369.86 590.10 364.11 Z" />
</g>
<g id="#680c2bff">
<path fill="currentColor" opacity="1.00" d=" M 598.58 38.82 C 690.04 33.77 782.63 51.66 865.70 90.23 C 967.50 137.55 1052.94 217.77 1109.63 314.39 C 1155.09 391.22 1182.11 478.53 1190.14 567.33 C 1194.46 614.13 1193.21 661.41 1186.66 707.93 C 1174.44 792.06 1143.81 873.45 1097.61 944.79 C 1078.14 974.65 1056.07 1002.83 1031.60 1028.76 C 948.85 1117.62 836.77 1179.35 716.73 1198.97 C 621.16 1214.87 521.29 1204.64 431.10 1169.14 C 350.93 1137.91 278.49 1087.94 219.12 1025.83 C 171.41 975.13 132.25 916.21 105.26 851.97 C 81.20 794.85 66.13 733.87 61.52 672.04 C 59.20 642.09 58.89 611.94 61.38 581.99 C 63.66 545.87 69.70 510.02 78.49 474.92 C 90.99 424.54 110.22 375.84 135.58 330.55 C 167.39 273.58 208.84 222.02 257.53 178.58 C 351.28 95.52 473.66 46.01 598.58 38.82 M 295.24 279.22 C 289.01 288.11 286.84 299.31 287.20 310.02 C 287.17 505.36 287.19 700.71 287.19 896.06 C 287.21 917.46 303.35 937.19 323.94 942.42 C 330.82 944.45 338.05 943.65 345.12 943.79 L 345.84 944.23 C 367.57 944.12 389.31 944.25 411.05 944.24 C 438.73 944.03 466.44 944.63 494.11 943.80 L 494.84 944.24 C 497.53 944.28 500.23 944.08 502.92 943.88 C 516.60 944.60 530.31 944.03 544.01 944.22 C 556.33 944.01 568.70 944.63 581.00 943.92 C 585.63 944.53 590.32 944.07 594.98 944.21 C 624.32 944.05 653.69 944.55 683.00 943.95 C 689.63 944.53 696.30 944.07 702.96 944.22 C 727.96 944.08 752.99 944.50 777.98 943.99 C 804.02 944.41 830.07 944.20 856.11 944.11 C 857.68 943.75 859.29 943.76 860.88 944.12 C 868.91 944.19 876.98 944.46 885.00 943.99 C 890.98 944.31 897.02 944.27 903.00 943.96 C 908.28 944.40 913.61 944.32 918.90 943.86 C 936.92 943.54 953.65 931.53 961.38 915.51 C 965.15 907.93 966.58 899.34 966.34 890.93 C 966.32 696.94 966.34 502.95 966.34 308.96 C 966.43 301.34 965.23 293.62 962.13 286.63 C 956.41 274.25 945.87 263.94 932.87 259.52 C 926.21 257.01 919.02 256.61 911.98 256.82 C 720.00 256.82 528.02 256.84 336.04 256.83 C 319.84 256.95 304.07 265.64 295.24 279.22 Z" />
<path fill="currentColor" opacity="1.00" d=" M 331.80 313.98 C 331.61 308.41 336.14 302.86 341.98 303.25 C 529.68 303.24 717.37 303.25 905.07 303.24 C 908.83 303.42 913.06 302.46 916.38 304.74 C 919.50 306.68 921.11 310.38 921.20 313.96 C 921.25 502.65 921.20 691.33 921.23 880.02 C 921.24 885.09 921.98 891.03 917.99 894.95 C 914.65 898.62 909.37 897.54 904.98 897.74 C 717.63 897.75 530.28 897.76 342.93 897.73 C 336.86 898.54 331.42 892.99 331.79 887.01 C 331.93 864.00 331.59 840.98 331.98 817.98 C 331.60 796.00 331.93 774.00 331.80 752.01 C 331.63 747.67 332.56 743.34 332.03 739.01 C 331.65 736.00 331.81 732.97 332.10 729.96 C 331.50 705.97 331.85 681.91 332.05 657.91 C 331.63 638.29 331.73 618.62 332.00 599.00 C 331.56 575.35 331.94 551.67 331.82 528.01 C 331.92 510.01 331.62 492.00 331.96 474.00 C 331.48 460.34 332.27 446.67 331.81 433.01 C 331.93 417.01 331.61 401.00 331.97 385.01 C 331.76 361.35 331.83 337.66 331.80 313.98 M 590.10 364.11 C 590.75 369.86 594.45 374.51 598.49 378.36 C 598.62 383.17 598.64 388.01 598.42 392.82 C 597.33 398.27 593.19 403.12 587.85 404.80 C 584.94 405.84 581.81 405.33 578.81 405.26 L 578.14 404.73 C 568.32 404.14 558.43 405.01 548.85 407.26 C 528.41 412.04 507.34 417.00 486.25 413.90 C 477.22 412.45 467.48 409.84 461.48 402.42 C 455.47 395.56 444.75 393.16 436.64 397.62 C 427.30 402.06 422.64 413.65 425.43 423.45 C 427.13 429.30 430.84 434.61 435.98 437.94 C 451.50 449.76 470.96 455.01 490.10 456.94 C 518.72 459.75 547.23 452.73 574.06 443.33 C 579.13 441.72 585.18 442.16 589.38 445.66 C 592.39 448.19 594.53 452.02 594.43 456.03 C 594.37 462.01 594.44 468.00 594.44 473.99 C 594.47 478.91 591.03 483.52 586.54 485.33 C 564.47 493.02 542.77 501.85 520.32 508.40 C 502.85 512.81 484.36 514.39 466.62 510.70 C 456.29 508.59 445.90 504.32 438.88 496.17 C 435.89 493.15 434.84 488.87 432.30 485.54 C 427.14 478.64 417.52 475.35 409.28 478.12 C 400.19 480.98 394.10 490.54 394.60 499.94 C 394.65 505.72 397.10 511.10 399.81 516.09 C 402.89 522.05 407.20 527.35 412.29 531.70 C 424.82 543.11 440.94 549.58 457.04 554.14 C 475.50 559.36 495.23 559.81 513.93 555.57 C 535.73 550.87 555.92 541.11 576.08 531.90 C 579.91 530.30 583.69 527.65 588.05 528.38 C 592.58 528.92 595.31 533.73 595.22 537.99 C 595.20 546.00 595.24 554.02 595.19 562.03 C 595.10 566.41 592.47 570.53 588.55 572.49 C 582.41 575.49 576.03 577.95 569.79 580.73 C 551.21 589.33 533.01 598.70 514.57 607.58 C 499.14 614.79 481.55 617.11 464.71 614.97 C 451.17 613.20 437.22 608.70 427.72 598.40 C 423.95 594.53 422.81 588.85 418.72 585.24 C 412.27 578.70 401.18 577.11 393.44 582.27 C 385.78 586.80 382.29 596.58 384.06 605.11 C 386.00 614.91 391.61 623.56 398.18 630.91 C 405.79 639.69 415.99 645.63 426.16 650.98 C 441.42 658.05 458.02 663.30 475.01 662.74 C 495.21 663.05 514.84 656.17 532.15 646.15 C 549.67 636.45 566.67 625.84 584.34 616.41 C 586.33 615.24 588.75 615.11 590.97 615.57 C 594.42 616.72 596.21 620.50 596.07 623.97 C 596.11 630.99 596.02 638.02 596.10 645.04 C 596.22 650.23 592.56 655.04 587.85 656.97 C 566.70 666.25 546.24 678.27 530.65 695.58 C 520.38 707.18 509.35 719.19 494.47 724.70 C 480.34 730.34 464.37 729.24 450.19 724.43 C 441.08 720.99 432.59 714.89 427.74 706.31 C 424.20 700.56 417.63 697.13 411.00 696.65 C 405.04 696.87 398.95 699.36 395.18 704.11 C 390.07 710.35 389.10 719.43 392.08 726.84 C 398.29 742.15 411.15 753.81 425.57 761.36 C 441.12 769.38 458.44 774.57 476.05 774.36 C 490.52 773.82 504.84 770.19 517.80 763.70 C 534.43 755.75 547.77 742.51 559.33 728.41 C 566.81 718.66 575.00 709.30 584.77 701.78 C 586.82 700.09 589.34 699.29 591.87 698.66 C 595.84 699.36 598.72 703.02 598.68 707.03 C 598.72 716.31 598.78 725.60 598.65 734.89 C 598.67 738.63 595.57 740.89 593.17 743.26 C 587.16 749.28 584.42 758.61 586.88 766.84 C 588.29 772.71 592.37 777.33 596.50 781.51 C 600.85 786.30 599.01 793.16 599.41 799.01 C 599.78 801.83 598.60 804.63 596.05 806.01 C 588.30 811.18 584.72 821.54 587.50 830.41 C 589.85 837.99 596.94 844.18 605.05 844.39 C 618.36 844.49 631.68 844.38 645.00 844.44 C 648.46 844.54 651.88 843.51 654.92 841.88 C 661.25 838.44 664.84 831.14 664.90 824.08 C 664.79 816.93 661.13 809.76 655.03 805.92 C 653.62 804.96 652.01 803.91 651.85 802.04 C 651.58 797.68 651.79 793.30 651.73 788.94 C 651.59 785.71 653.03 782.55 655.49 780.47 C 661.32 775.35 665.44 767.84 665.07 759.93 C 664.48 752.77 661.17 745.89 655.83 741.07 C 653.75 739.31 652.40 736.72 652.55 733.96 C 652.59 724.65 652.36 715.33 652.58 706.03 C 652.62 701.09 658.50 697.47 662.81 700.08 C 671.17 705.20 677.15 713.18 683.89 720.13 C 694.99 733.92 706.63 747.82 721.85 757.24 C 743.43 771.22 770.44 777.94 795.80 772.18 C 810.26 768.77 824.49 763.41 836.63 754.71 C 846.24 748.07 854.10 738.95 859.26 728.47 C 862.06 722.48 862.43 715.36 859.79 709.25 C 856.83 701.76 849.05 696.65 841.05 696.61 C 835.81 697.03 830.58 699.11 826.87 702.89 C 823.32 706.09 821.71 710.85 818.00 713.90 C 805.09 726.01 786.27 730.02 769.06 728.05 C 754.25 726.08 740.83 718.02 730.79 707.17 C 721.80 697.51 713.32 687.21 702.48 679.52 C 690.12 670.69 676.77 663.27 663.07 656.74 C 658.81 654.51 655.50 649.93 655.64 645.00 C 655.69 637.65 655.56 630.30 655.60 622.95 C 655.58 620.04 657.16 616.87 660.06 615.91 C 662.60 614.77 665.08 616.43 667.18 617.74 C 678.43 624.85 689.74 631.87 701.17 638.70 C 717.82 648.90 735.51 658.30 755.03 661.37 C 768.94 663.38 783.34 663.45 797.04 659.97 C 810.93 656.45 824.62 651.57 836.85 643.98 C 848.61 637.04 858.53 626.75 864.51 614.43 C 867.25 608.77 869.24 602.26 867.62 595.99 C 866.28 586.66 857.47 579.05 848.04 579.26 C 842.48 578.92 837.23 581.61 833.08 585.10 C 829.04 588.40 827.94 593.84 824.41 597.56 C 820.36 601.98 815.41 605.56 810.13 608.37 C 794.63 615.70 776.91 616.90 760.10 614.87 C 744.83 613.02 730.90 606.18 717.18 599.69 C 698.93 591.15 681.02 581.95 662.94 573.06 C 658.78 571.16 656.43 566.44 656.48 562.00 C 656.52 553.98 656.50 545.96 656.43 537.95 C 655.58 531.74 662.10 526.03 668.07 528.82 C 686.60 537.15 704.77 546.50 724.23 552.52 C 743.19 558.21 763.45 560.22 783.00 556.53 C 798.50 553.54 813.74 548.39 827.39 540.36 C 840.19 532.71 851.47 521.37 856.16 506.95 C 858.95 499.31 857.06 490.32 851.81 484.19 C 847.14 478.76 839.50 476.09 832.48 477.64 C 826.34 479.16 820.65 483.17 817.91 488.98 C 815.21 494.59 810.70 499.19 805.58 502.65 C 796.89 508.56 786.34 510.63 776.12 512.11 C 757.73 513.98 739.08 511.45 721.56 505.70 C 702.48 499.28 683.62 492.24 664.74 485.27 C 661.44 484.14 658.78 481.38 657.58 478.14 C 656.31 474.20 657.11 469.99 656.87 465.95 C 657.11 459.85 655.56 452.88 659.66 447.70 C 663.33 442.35 670.89 441.30 676.62 443.63 C 694.26 449.59 712.31 454.66 730.87 456.74 C 751.98 459.23 773.61 456.82 793.70 449.89 C 802.59 446.84 810.62 441.75 818.07 436.10 C 824.63 430.56 828.67 421.46 826.68 412.88 C 825.28 404.52 818.31 397.45 810.02 395.81 C 804.80 394.69 799.23 395.88 794.79 398.78 C 790.86 401.10 788.19 405.03 784.17 407.21 C 777.03 411.26 768.92 413.37 760.81 414.24 C 745.52 415.95 730.07 414.16 715.12 410.84 C 702.85 408.27 690.68 404.33 678.01 404.52 C 673.60 404.40 669.27 405.78 664.86 405.24 C 659.70 404.35 655.44 400.41 653.48 395.66 C 651.64 390.05 652.98 383.99 652.68 378.19 C 656.54 374.94 659.93 370.86 661.24 365.89 C 662.07 361.58 661.96 356.98 660.15 352.93 C 657.57 346.62 650.97 341.91 644.05 342.35 C 630.72 342.52 617.39 342.24 604.06 342.48 C 594.35 343.99 588.24 354.83 590.10 364.11 Z" />
</g>
</svg>
