<?xml version="1.0" encoding="UTF-8" ?>
<!DOCTYPE svg PUBLIC "-//W3C//DTD SVG 1.1//EN" "http://www.w3.org/Graphics/SVG/1.1/DTD/svg11.dtd">
<svg width="1254pt" height="1254pt" viewBox="0 0 1254 1254" version="1.1" xmlns="http://www.w3.org/2000/svg">
<g id="#fdfdfdff">
<path fill="#ffffff" opacity="1.00" d=" M 623.34 255.55 C 628.92 252.86 636.52 255.04 639.38 260.66 C 684.32 324.59 727.61 389.71 768.63 456.23 C 788.37 487.87 807.52 519.90 825.44 552.62 C 840.23 579.87 853.80 608.07 861.66 638.19 C 869.36 666.39 872.57 695.97 869.53 725.10 C 864.93 768.94 849.27 811.70 823.85 847.77 C 781.72 909.13 709.61 949.43 634.95 950.93 C 627.63 951.85 620.32 950.55 612.99 950.53 C 560.63 947.04 509.99 925.01 470.86 890.20 C 415.94 842.02 382.90 769.28 384.85 696.05 C 386.24 654.64 399.09 614.38 417.32 577.45 C 432.68 546.76 449.94 517.08 467.78 487.78 C 514.01 412.25 562.85 338.32 613.78 265.88 C 616.91 262.40 618.67 257.32 623.34 255.55 M 463.42 668.61 C 454.92 671.28 448.46 679.95 449.02 688.97 C 447.45 720.45 453.86 752.30 467.32 780.80 C 473.44 793.96 481.01 806.49 490.33 817.63 C 513.35 845.52 546.31 864.89 581.83 871.59 C 590.16 872.90 599.02 868.08 602.46 860.39 C 606.15 853.08 604.82 843.72 599.52 837.55 C 595.65 832.94 589.90 830.57 584.12 829.48 C 564.76 823.99 546.74 813.68 532.09 799.88 C 517.79 786.31 507.20 769.13 500.25 750.75 C 493.12 730.69 489.66 709.28 490.46 687.99 C 490.68 674.75 475.91 664.22 463.42 668.61 Z" />
</g>
<g id="#6c0f2cff">
<path fill="currentColor" opacity="1.00" d=" M 594.55 62.84 C 622.35 61.10 650.27 61.38 678.02 63.78 C 762.26 71.55 844.56 99.63 915.92 145.07 C 965.65 176.48 1010.22 216.06 1046.98 262.00 C 1074.84 296.56 1098.64 334.43 1117.18 374.78 C 1144.46 433.73 1161.55 497.30 1168.12 561.90 C 1172.76 612.48 1171.42 663.73 1162.77 713.83 C 1155.46 757.83 1142.98 801.01 1124.96 841.83 C 1109.65 876.58 1091.03 909.94 1068.76 940.72 C 1023.70 1003.79 965.41 1057.40 898.52 1096.62 C 862.31 1117.94 823.83 1135.65 783.55 1147.77 C 738.07 1161.91 690.73 1170.10 643.11 1171.54 C 553.20 1174.43 463.19 1151.84 383.68 1110.19 C 286.11 1059.83 203.88 980.06 150.97 883.81 C 131.26 848.30 115.90 810.42 104.88 771.34 C 94.40 733.41 88.33 694.30 86.02 655.04 C 85.06 639.39 85.27 623.68 85.21 608.01 C 86.51 522.01 107.21 436.16 146.50 359.57 C 175.11 303.51 213.25 252.26 259.00 209.02 C 331.13 141.19 422.00 93.28 518.99 73.08 C 543.88 67.79 569.18 64.63 594.55 62.84 M 623.34 255.55 C 618.67 257.32 616.91 262.40 613.78 265.88 C 562.85 338.32 514.01 412.25 467.78 487.78 C 449.94 517.08 432.68 546.76 417.32 577.45 C 399.09 614.38 386.24 654.64 384.85 696.05 C 382.90 769.28 415.94 842.02 470.86 890.20 C 509.99 925.01 560.63 947.04 612.99 950.53 C 620.32 950.55 627.63 951.85 634.95 950.93 C 709.61 949.43 781.72 909.13 823.85 847.77 C 849.27 811.70 864.93 768.94 869.53 725.10 C 872.57 695.97 869.36 666.39 861.66 638.19 C 853.80 608.07 840.23 579.87 825.44 552.62 C 807.52 519.90 788.37 487.87 768.63 456.23 C 727.61 389.71 684.32 324.59 639.38 260.66 C 636.52 255.04 628.92 252.86 623.34 255.55 Z" />
<path fill="currentColor" opacity="1.00" d=" M 463.42 668.61 C 475.91 664.22 490.68 674.75 490.46 687.99 C 489.66 709.28 493.12 730.69 500.25 750.75 C 507.20 769.13 517.79 786.31 532.09 799.88 C 546.74 813.68 564.76 823.99 584.12 829.48 C 589.90 830.57 595.65 832.94 599.52 837.55 C 604.82 843.72 606.15 853.08 602.46 860.39 C 599.02 868.08 590.16 872.90 581.83 871.59 C 546.31 864.89 513.35 845.52 490.33 817.63 C 481.01 806.49 473.44 793.96 467.32 780.80 C 453.86 752.30 447.45 720.45 449.02 688.97 C 448.46 679.95 454.92 671.28 463.42 668.61 Z" />
</g>
</svg>
