<?xml version="1.0" encoding="UTF-8" ?>
<!DOCTYPE svg PUBLIC "-//W3C//DTD SVG 1.1//EN" "http://www.w3.org/Graphics/SVG/1.1/DTD/svg11.dtd">
<svg width="1254pt" height="1254pt" viewBox="0 0 1254 1254" version="1.1" xmlns="http://www.w3.org/2000/svg">
<g id="#fcfbfbff">
<path fill="#ffffff" opacity="1.00" d=" M 616.54 159.61 C 620.42 151.52 628.98 146.04 637.89 145.57 C 645.43 145.15 652.35 148.68 659.39 150.83 C 691.32 161.68 723.15 172.84 754.96 184.04 C 763.95 186.99 771.86 193.60 775.35 202.52 C 778.73 209.94 777.66 218.53 774.63 225.88 C 766.63 248.16 758.14 270.26 750.33 292.61 C 743.83 311.33 736.83 329.88 730.74 348.74 C 725.42 364.45 720.19 380.22 716.17 396.32 C 712.34 412.92 710.18 430.08 711.89 447.10 C 713.33 459.19 716.36 471.16 721.60 482.19 C 728.76 497.72 735.49 513.87 736.92 531.10 C 738.95 549.43 734.51 568.31 725.24 584.21 C 717.74 597.28 706.34 608.44 692.44 614.49 C 679.09 620.61 663.51 621.53 649.50 617.20 C 635.89 613.35 623.99 604.72 614.82 594.09 C 600.52 578.63 579.10 569.77 558.00 571.55 C 543.25 572.97 528.77 578.63 517.51 588.38 C 497.10 605.12 467.57 610.35 442.99 600.27 C 428.40 594.45 416.03 583.34 408.47 569.60 C 398.57 552.36 395.54 531.61 398.55 512.08 C 400.77 495.16 406.68 478.83 415.17 464.06 C 428.12 440.37 448.44 421.54 470.74 406.73 C 485.47 396.04 499.26 383.83 510.53 369.48 C 523.45 353.61 533.16 335.52 542.65 317.47 C 569.36 265.85 593.06 212.75 616.54 159.61 Z" />
<path fill="#ffffff" opacity="1.00" d=" M 909.63 499.83 C 916.14 498.63 923.03 501.98 926.57 507.48 C 930.51 513.43 931.13 521.89 926.85 527.83 C 924.31 531.74 919.88 533.63 916.13 536.13 C 897.91 546.93 879.76 557.85 861.45 568.49 C 857.93 570.65 854.32 573.11 850.06 573.25 C 842.69 573.73 835.63 568.81 833.04 561.99 C 829.92 554.74 832.66 545.54 839.01 540.95 C 859.11 528.78 879.29 516.74 899.50 504.76 C 902.77 502.92 905.86 500.54 909.63 499.83 Z" />
<path fill="#ffffff" opacity="1.00" d=" M 290.26 608.40 C 307.82 608.00 325.42 608.37 343.00 608.24 C 353.33 607.44 362.09 618.10 360.61 628.08 C 360.04 636.38 352.43 643.70 344.04 643.62 C 327.70 643.74 311.36 643.58 295.02 643.69 C 286.03 644.49 277.25 636.93 276.53 627.97 C 275.27 619.22 281.51 610.03 290.26 608.40 Z" />
<path fill="#ffffff" opacity="1.00" d=" M 845.86 622.96 C 848.57 619.65 852.63 617.33 856.95 617.21 C 868.63 616.45 880.33 616.96 892.02 616.85 C 912.01 616.69 932.01 616.90 951.99 616.93 C 957.33 616.96 962.67 617.27 968.02 617.19 C 973.39 617.10 978.39 620.37 981.20 624.82 C 986.84 633.18 984.07 646.33 974.78 650.85 C 970.91 653.20 966.27 652.63 961.98 652.68 C 929.64 652.67 897.31 652.73 864.98 652.69 C 859.60 652.71 853.65 653.40 849.13 649.81 C 840.42 644.05 839.08 630.71 845.86 622.96 Z" />
<path fill="#ffffff" opacity="1.00" d=" M 662.09 642.02 C 674.26 640.51 686.81 642.27 697.91 647.56 C 716.03 655.90 729.77 672.86 734.76 692.11 C 738.79 706.04 738.01 721.00 733.86 734.80 C 730.01 748.96 722.50 761.68 715.69 774.54 C 707.83 789.05 703.28 805.42 703.37 821.96 C 702.40 851.86 711.66 880.66 719.24 909.21 C 728.89 941.73 738.54 974.25 748.19 1006.77 C 750.20 1014.26 754.01 1021.86 751.98 1029.78 C 750.95 1035.32 746.55 1039.47 741.79 1042.08 C 734.54 1046.40 726.10 1047.77 718.06 1049.88 C 695.34 1055.53 672.58 1061.03 649.91 1066.85 C 637.47 1070.09 624.81 1072.73 611.97 1073.56 C 602.15 1074.31 591.45 1070.48 586.01 1061.92 C 583.06 1057.18 581.86 1051.63 579.82 1046.49 C 571.37 1023.82 562.33 1001.37 553.53 978.83 C 543.26 953.02 533.00 927.17 520.93 902.13 C 513.97 888.48 506.56 874.93 497.00 862.90 C 489.36 853.26 480.44 844.63 470.59 837.27 C 462.29 830.81 453.16 825.49 444.98 818.87 C 417.06 796.89 397.90 763.52 394.84 727.94 C 393.40 710.08 397.75 691.66 407.61 676.64 C 417.89 661.21 434.62 650.23 452.95 647.21 C 475.76 643.36 499.52 652.13 516.02 667.98 C 528.76 680.24 546.22 687.45 563.92 687.55 C 584.47 687.73 604.48 678.33 618.29 663.28 C 630.19 651.85 645.58 643.81 662.09 642.02 Z" />
<path fill="#ffffff" opacity="1.00" d=" M 831.26 723.09 C 828.17 712.65 836.82 700.05 848.01 700.40 C 854.67 699.94 859.41 705.23 864.76 708.26 C 883.80 720.91 903.02 733.30 922.00 746.05 C 928.18 749.94 930.91 757.95 929.05 764.91 C 926.65 775.20 913.97 782.32 904.41 776.61 C 882.45 762.82 861.08 748.11 839.46 733.80 C 835.50 731.43 832.33 727.63 831.26 723.09 Z" />
</g>
<g id="#650e2aff">
<path fill="currentColor" opacity="1.00" d=" M 601.13 18.11 C 651.05 15.95 701.32 19.82 750.05 31.10 C 792.00 40.17 832.79 54.37 871.56 72.73 C 974.66 120.79 1062.06 200.72 1121.30 297.63 C 1142.30 331.98 1160.01 368.37 1173.70 406.24 C 1206.31 496.39 1217.47 594.04 1207.30 689.30 C 1202.54 734.46 1192.61 779.07 1178.01 822.06 C 1164.15 862.75 1145.70 901.82 1123.75 938.76 C 1112.20 957.27 1100.37 975.67 1086.83 992.80 C 1041.64 1051.20 985.76 1101.48 922.27 1139.28 C 885.18 1161.41 845.61 1179.43 804.45 1192.52 C 759.89 1206.65 713.71 1215.89 667.03 1218.87 C 613.86 1222.30 560.15 1218.75 508.10 1207.20 C 377.55 1179.27 257.99 1104.45 174.43 1000.51 C 129.17 944.01 94.64 879.03 72.50 810.12 C 45.76 726.79 37.29 637.75 47.17 550.83 C 52.97 498.09 65.42 446.07 84.36 396.51 C 126.71 286.77 202.47 190.25 298.78 122.77 C 387.13 60.60 493.13 23.34 601.13 18.11 M 616.54 159.61 C 593.06 212.75 569.36 265.85 542.65 317.47 C 533.16 335.52 523.45 353.61 510.53 369.48 C 499.26 383.83 485.47 396.04 470.74 406.73 C 448.44 421.54 428.12 440.37 415.17 464.06 C 406.68 478.83 400.77 495.16 398.55 512.08 C 395.54 531.61 398.57 552.36 408.47 569.60 C 416.03 583.34 428.40 594.45 442.99 600.27 C 467.57 610.35 497.10 605.12 517.51 588.38 C 528.77 578.63 543.25 572.97 558.00 571.55 C 579.10 569.77 600.52 578.63 614.82 594.09 C 623.99 604.72 635.89 613.35 649.50 617.20 C 663.51 621.53 679.09 620.61 692.44 614.49 C 706.34 608.44 717.74 597.28 725.24 584.21 C 734.51 568.31 738.95 549.43 736.92 531.10 C 735.49 513.87 728.76 497.72 721.60 482.19 C 716.36 471.16 713.33 459.19 711.89 447.10 C 710.18 430.08 712.34 412.92 716.17 396.32 C 720.19 380.22 725.42 364.45 730.74 348.74 C 736.83 329.88 743.83 311.33 750.33 292.61 C 758.14 270.26 766.63 248.16 774.63 225.88 C 777.66 218.53 778.73 209.94 775.35 202.52 C 771.86 193.60 763.95 186.99 754.96 184.04 C 723.15 172.84 691.32 161.68 659.39 150.83 C 652.35 148.68 645.43 145.15 637.89 145.57 C 628.98 146.04 620.42 151.52 616.54 159.61 M 909.63 499.83 C 905.86 500.54 902.77 502.92 899.50 504.76 C 879.29 516.74 859.11 528.78 839.01 540.95 C 832.66 545.54 829.92 554.74 833.04 561.99 C 835.63 568.81 842.69 573.73 850.06 573.25 C 854.32 573.11 857.93 570.65 861.45 568.49 C 879.76 557.85 897.91 546.93 916.13 536.13 C 919.88 533.63 924.31 531.74 926.85 527.83 C 931.13 521.89 930.51 513.43 926.57 507.48 C 923.03 501.98 916.14 498.63 909.63 499.83 M 290.26 608.40 C 281.51 610.03 275.27 619.22 276.53 627.97 C 277.25 636.93 286.03 644.49 295.02 643.69 C 311.36 643.58 327.70 643.74 344.04 643.62 C 352.43 643.70 360.04 636.38 360.61 628.08 C 362.09 618.10 353.33 607.44 343.00 608.24 C 325.42 608.37 307.82 608.00 290.26 608.40 M 845.86 622.96 C 839.08 630.71 840.42 644.05 849.13 649.81 C 853.65 653.40 859.60 652.71 864.98 652.69 C 897.31 652.73 929.64 652.67 961.98 652.68 C 966.27 652.63 970.91 653.20 974.78 650.85 C 984.07 646.33 986.84 633.18 981.20 624.82 C 978.39 620.37 973.39 617.10 968.02 617.19 C 962.67 617.27 957.33 616.96 951.99 616.93 C 932.01 616.90 912.01 616.69 892.02 616.85 C 880.33 616.96 868.63 616.45 856.95 617.21 C 852.63 617.33 848.57 619.65 845.86 622.96 M 662.09 642.02 C 645.58 643.81 630.19 651.85 618.29 663.28 C 604.48 678.33 584.47 687.73 563.92 687.55 C 546.22 687.45 528.76 680.24 516.02 667.98 C 499.52 652.13 475.76 643.36 452.95 647.21 C 434.62 650.23 417.89 661.21 407.61 676.64 C 397.75 691.66 393.40 710.08 394.84 727.94 C 397.90 763.52 417.06 796.89 444.98 818.87 C 453.16 825.49 462.29 830.81 470.59 837.27 C 480.44 844.63 489.36 853.26 497.00 862.90 C 506.56 874.93 513.97 888.48 520.93 902.13 C 533.00 927.17 543.26 953.02 553.53 978.83 C 562.33 1001.37 571.37 1023.82 579.82 1046.49 C 581.86 1051.63 583.06 1057.18 586.01 1061.92 C 591.45 1070.48 602.15 1074.31 611.97 1073.56 C 624.81 1072.73 637.47 1070.09 649.91 1066.85 C 672.58 1061.03 695.34 1055.53 718.06 1049.88 C 726.10 1047.77 734.54 1046.40 741.79 1042.08 C 746.55 1039.47 750.95 1035.32 751.98 1029.78 C 754.01 1021.86 750.20 1014.26 748.19 1006.77 C 738.54 974.25 728.89 941.73 719.24 909.21 C 711.66 880.66 702.40 851.86 703.37 821.96 C 703.28 805.42 707.83 789.05 715.69 774.54 C 722.50 761.68 730.01 748.96 733.86 734.80 C 738.01 721.00 738.79 706.04 734.76 692.11 C 729.77 672.86 716.03 655.90 697.91 647.56 C 686.81 642.27 674.26 640.51 662.09 642.02 M 831.26 723.09 C 832.33 727.63 835.50 731.43 839.46 733.80 C 861.08 748.11 882.45 762.82 904.41 776.61 C 913.97 782.32 926.65 775.20 929.05 764.91 C 930.91 757.95 928.18 749.94 922.00 746.05 C 903.02 733.30 883.80 720.91 864.76 708.26 C 859.41 705.23 854.67 699.94 848.01 700.40 C 836.82 700.05 828.17 712.65 831.26 723.09 Z" />
</g>
</svg>
