<?xml version="1.0" encoding="UTF-8" ?>
<!DOCTYPE svg PUBLIC "-//W3C//DTD SVG 1.1//EN" "http://www.w3.org/Graphics/SVG/1.1/DTD/svg11.dtd">
<svg width="1254pt" height="1254pt" viewBox="0 0 1254 1254" version="1.1" xmlns="http://www.w3.org/2000/svg">
<g id="#000000ff">
<path fill="currentColor" opacity="1.00" d=" M 175.08 148.14 C 184.87 142.91 196.02 141.07 207.01 140.65 C 480.34 140.67 753.67 140.65 1027.00 140.66 C 1039.82 140.81 1052.99 139.62 1065.39 143.69 C 1083.02 148.63 1098.22 160.43 1108.76 175.24 C 1111.57 179.12 1113.41 183.59 1115.16 188.02 C 1119.23 197.85 1121.88 208.35 1122.41 218.99 C 1122.40 470.00 1122.43 721.02 1122.39 972.03 C 1121.42 981.55 1118.55 990.88 1114.92 999.72 C 1111.71 1007.67 1106.06 1014.18 1101.10 1021.05 C 1095.87 1027.24 1089.45 1032.52 1082.16 1036.11 C 1071.69 1041.73 1059.99 1045.40 1048.05 1045.66 C 1041.37 1046.05 1034.64 1045.34 1027.98 1046.06 C 1027.01 1064.30 1027.99 1082.65 1027.53 1100.92 C 1027.05 1107.65 1021.09 1114.09 1014.07 1113.72 C 970.36 1113.80 926.64 1113.68 882.93 1113.79 C 875.40 1114.37 868.45 1107.59 868.84 1100.05 C 868.93 1084.70 868.68 1069.34 868.95 1053.99 C 868.91 1051.49 869.14 1048.94 868.45 1046.52 C 863.77 1045.13 858.80 1045.99 854.00 1045.84 C 701.34 1045.93 548.67 1045.83 396.01 1045.85 C 391.85 1045.87 387.63 1045.55 383.55 1046.50 C 382.88 1060.97 383.45 1075.50 383.29 1090.00 C 383.15 1096.89 384.98 1105.75 378.48 1110.44 C 374.03 1114.68 367.60 1113.81 362.00 1113.80 C 320.64 1113.53 279.28 1114.03 237.93 1113.72 C 232.88 1113.97 228.18 1110.64 225.90 1106.29 C 224.52 1102.35 225.25 1098.07 225.06 1094.00 C 224.58 1077.83 225.25 1061.62 224.62 1045.46 C 215.41 1045.23 206.13 1046.10 197.00 1044.41 C 183.39 1042.56 170.33 1037.07 159.57 1028.50 C 149.96 1022.09 143.08 1012.46 137.67 1002.42 C 134.14 995.91 132.45 988.67 130.47 981.60 C 128.70 975.55 129.45 969.20 129.33 963.00 C 129.39 714.31 129.32 465.63 129.35 216.95 C 129.37 213.98 129.66 211.02 130.30 208.12 C 132.20 199.39 134.50 190.61 138.82 182.72 C 147.06 167.93 159.44 155.06 175.08 148.14 M 200.39 165.58 C 191.86 166.63 184.35 171.07 176.82 174.89 C 174.71 175.99 172.75 177.36 171.02 179.01 C 160.82 188.48 154.29 202.05 153.39 215.94 C 153.37 465.29 153.39 714.65 153.38 964.00 C 153.36 969.25 153.06 974.59 154.40 979.73 C 156.56 988.86 160.55 997.94 167.52 1004.42 C 177.24 1013.43 189.56 1020.42 202.99 1021.39 C 482.66 1021.42 762.33 1021.34 1042.00 1021.42 C 1051.96 1022.19 1061.83 1019.27 1070.58 1014.67 C 1087.27 1005.41 1097.98 987.00 1098.81 968.04 C 1098.58 932.37 1098.86 896.68 1098.76 861.00 C 1098.77 646.99 1098.85 432.99 1098.73 218.98 C 1098.97 208.20 1095.51 197.42 1089.28 188.66 C 1083.89 182.72 1078.36 176.64 1071.31 172.62 C 1065.52 169.12 1059.01 166.97 1052.41 165.63 C 1043.34 164.22 1034.13 165.12 1025.00 164.80 C 912.66 164.94 800.34 164.84 688.00 164.89 C 664.67 164.95 641.33 164.61 618.00 165.12 C 575.00 164.61 532.00 164.92 489.00 164.85 C 401.67 164.89 314.33 164.85 227.00 164.87 C 218.13 164.80 209.22 164.56 200.39 165.58 M 248.45 1045.43 C 248.27 1060.15 248.30 1074.90 248.44 1089.62 C 255.61 1090.14 262.81 1089.67 270.00 1089.78 C 299.85 1089.72 329.73 1090.03 359.57 1089.60 C 359.65 1074.89 359.76 1060.15 359.55 1045.45 C 322.52 1045.31 285.47 1045.29 248.45 1045.43 M 892.45 1045.43 C 892.33 1060.16 892.29 1074.92 892.44 1089.65 C 901.28 1090.17 910.15 1089.65 919.00 1089.76 C 937.66 1089.77 956.33 1089.81 975.00 1089.78 C 984.75 1089.51 994.58 1090.43 1004.28 1089.27 C 1004.88 1084.20 1004.42 1079.08 1004.52 1074.00 C 1004.36 1064.56 1004.89 1055.09 1004.32 1045.67 C 996.24 1044.90 988.10 1045.59 980.00 1045.35 C 950.81 1045.37 921.62 1045.31 892.45 1045.43 Z" />
<path fill="currentColor" opacity="1.00" d=" M 265.37 241.18 C 271.21 240.36 277.12 240.61 283.00 240.62 C 512.67 240.63 742.34 240.64 972.00 240.61 C 982.05 240.20 992.33 241.28 1001.62 245.33 C 1007.52 248.04 1012.14 252.78 1016.54 257.44 C 1024.41 265.85 1026.98 277.81 1027.30 289.00 C 1027.24 445.00 1027.31 601.00 1027.25 757.00 C 1027.71 769.31 1027.52 782.32 1021.59 793.47 C 1017.10 801.01 1011.61 808.47 1003.60 812.52 C 997.81 815.31 991.57 817.61 985.07 817.66 C 750.38 817.65 515.69 817.68 281.00 817.65 C 273.00 817.49 264.74 818.52 257.01 815.83 C 244.53 812.45 234.43 802.88 228.70 791.50 C 223.75 781.77 225.04 770.53 224.94 760.00 C 224.86 609.34 224.92 458.67 224.89 308.00 C 225.26 296.11 223.83 284.00 226.57 272.30 C 231.50 255.21 248.11 243.26 265.37 241.18 M 264.30 265.17 C 256.27 267.36 248.35 274.09 248.38 283.01 C 248.31 446.68 248.40 610.36 248.34 774.04 C 248.31 779.38 250.64 784.74 254.52 788.40 C 258.82 791.21 263.71 793.68 268.95 793.86 C 506.98 793.81 745.02 793.85 983.04 793.84 C 993.76 794.03 1002.79 784.44 1003.42 774.04 C 1003.43 610.68 1003.44 447.32 1003.42 283.96 C 1002.96 274.16 994.58 265.80 985.04 264.60 C 749.36 264.56 513.68 264.60 278.00 264.58 C 273.44 264.65 268.79 264.10 264.30 265.17 Z" />
<path fill="currentColor" opacity="1.00" d=" M 818.06 335.14 C 828.45 331.72 840.36 331.82 850.24 336.83 C 854.62 338.51 857.88 342.05 861.96 344.24 C 866.49 341.40 870.53 337.65 875.66 335.80 C 892.40 328.91 913.34 334.06 924.75 348.17 C 929.23 354.88 933.42 362.07 935.08 370.05 C 935.77 376.17 935.76 382.44 934.75 388.53 C 931.67 400.08 925.26 410.51 917.50 419.50 C 911.65 426.26 905.64 432.96 898.86 438.78 C 887.90 446.32 879.28 456.82 867.87 463.73 C 863.38 465.41 857.59 465.45 853.77 462.19 C 845.08 455.63 836.06 449.41 828.44 441.58 C 821.83 436.22 816.01 430.00 809.88 424.12 C 805.38 419.76 802.19 414.33 798.65 409.22 C 794.33 402.94 790.68 396.03 789.26 388.47 C 786.81 378.69 786.90 367.77 791.81 358.75 C 796.98 347.88 806.43 338.73 818.06 335.14 M 816.03 363.05 C 810.04 368.68 811.15 377.50 811.48 384.92 C 812.63 393.01 818.43 399.42 823.98 405.02 C 830.81 411.52 837.08 418.64 844.47 424.54 C 850.42 429.32 855.74 434.94 862.17 439.11 C 865.52 438.33 867.77 435.39 870.41 433.38 C 884.11 421.86 897.78 409.94 908.13 395.21 C 910.73 391.10 912.51 386.47 913.42 381.70 C 914.68 372.26 909.12 362.81 901.20 357.94 C 896.09 355.45 890.04 355.68 884.61 356.81 C 878.06 358.51 874.68 364.87 871.04 369.97 C 866.53 376.76 854.89 375.93 851.50 368.44 C 848.24 361.54 841.60 356.13 833.87 355.43 C 827.02 354.63 821.07 359.01 816.03 363.05 Z" />
<path fill="currentColor" opacity="1.00" d=" M 546.42 365.22 C 547.47 360.13 551.73 355.52 557.13 355.34 C 562.61 354.75 569.20 357.51 570.34 363.42 C 578.33 397.62 586.55 431.79 594.73 465.95 C 599.98 490.14 606.08 514.14 611.54 538.28 C 615.23 556.29 620.75 573.87 623.84 592.00 C 624.68 599.13 626.40 606.09 628.18 613.03 C 630.10 620.49 631.16 628.16 633.68 635.46 C 637.45 646.73 638.42 658.74 642.06 670.04 C 644.14 669.19 644.65 666.40 645.71 664.56 C 651.00 650.43 657.06 636.61 662.87 622.69 C 668.93 606.97 676.12 591.70 682.07 575.93 C 689.38 559.34 695.85 542.40 702.82 525.67 C 704.52 520.51 707.12 514.89 712.43 512.63 C 716.63 512.01 721.91 511.39 725.03 514.96 C 730.75 520.24 733.80 527.56 738.27 533.80 C 743.87 541.54 749.32 549.39 755.04 557.04 C 757.44 560.22 759.44 563.82 762.51 566.44 C 767.55 567.82 772.84 566.74 778.00 566.94 C 787.00 567.34 796.00 566.66 805.00 566.85 C 822.33 567.22 839.67 566.55 857.00 567.11 C 884.99 566.89 913.00 566.82 941.00 566.82 C 945.43 567.14 950.61 566.62 954.14 569.88 C 957.72 572.88 958.28 578.08 957.23 582.39 C 955.94 587.67 950.00 590.11 945.05 590.36 C 883.69 590.45 822.33 590.32 760.97 590.42 C 756.15 590.35 750.64 589.59 747.45 585.55 C 739.34 575.26 732.28 564.20 724.43 553.72 C 722.86 551.78 721.91 548.84 719.24 548.21 C 715.95 556.05 712.79 563.94 709.66 571.85 C 704.60 580.84 701.30 590.65 697.21 600.09 C 690.21 615.68 684.60 631.84 677.67 647.45 C 674.20 655.98 670.62 664.48 667.12 672.99 C 664.63 682.12 659.68 690.26 656.16 698.98 C 653.96 703.88 651.92 708.84 649.96 713.83 C 648.45 717.84 644.38 720.95 639.99 720.59 C 635.22 720.60 629.40 718.38 627.73 713.54 C 616.14 663.45 604.61 613.35 593.00 563.27 C 587.32 540.70 582.40 517.95 576.84 495.36 C 573.27 480.84 570.86 466.04 566.58 451.70 C 563.78 440.91 561.89 429.88 558.77 419.18 C 558.37 419.17 557.58 419.16 557.18 419.15 C 551.80 438.09 547.05 457.24 541.96 476.27 C 537.38 495.44 531.71 514.32 527.18 533.50 C 521.21 555.99 515.77 578.62 509.93 601.15 C 508.64 605.88 506.57 611.59 501.38 613.14 C 496.87 614.22 490.81 614.48 488.10 609.92 C 484.33 603.97 481.24 597.60 477.11 591.88 C 472.46 585.63 469.25 578.51 465.21 571.89 C 459.95 563.28 456.55 553.56 450.52 545.42 C 450.03 545.45 449.06 545.51 448.57 545.54 C 445.27 549.12 443.25 553.64 440.59 557.68 C 434.92 566.88 428.00 575.23 422.27 584.39 C 419.46 588.76 413.97 590.37 409.03 590.41 C 375.34 590.38 341.65 590.37 307.96 590.41 C 303.46 590.47 298.58 588.81 296.23 584.72 C 291.72 578.30 296.62 566.83 304.94 567.28 C 332.62 566.44 360.31 567.10 388.00 566.79 C 394.11 566.50 400.36 567.54 406.39 566.38 C 410.71 561.90 413.37 556.09 417.08 551.11 C 425.65 539.60 433.84 527.80 441.95 515.96 C 444.87 511.46 450.94 511.87 455.56 512.63 C 459.51 514.34 462.10 518.13 464.14 521.76 C 469.00 531.35 474.98 540.31 480.04 549.79 C 481.86 553.27 483.82 556.67 485.92 559.99 C 488.10 563.41 489.46 567.33 492.02 570.52 C 494.44 568.72 494.55 565.14 495.55 562.45 C 511.76 496.52 529.56 430.98 546.42 365.22 Z" />
<path fill="currentColor" opacity="1.00" d=" M 911.43 861.64 C 922.77 860.09 934.86 860.60 945.25 865.85 C 961.43 873.07 974.40 887.27 979.62 904.26 C 986.07 922.01 981.95 942.28 971.74 957.77 C 965.99 965.30 959.07 972.04 950.91 976.90 C 933.65 986.93 911.37 987.50 893.67 978.26 C 886.13 974.23 879.08 969.06 873.74 962.33 C 862.09 949.20 857.39 930.68 859.75 913.45 C 861.93 903.08 865.35 892.57 872.48 884.49 C 878.75 877.71 885.44 870.88 894.04 867.11 C 899.61 864.67 905.40 862.58 911.43 861.64 M 914.33 885.16 C 905.91 887.20 897.50 891.11 892.07 898.09 C 885.82 906.05 882.05 916.30 883.14 926.49 C 883.76 934.34 887.28 941.73 892.11 947.86 C 898.84 955.61 908.78 960.40 918.96 961.37 C 927.69 961.65 936.36 958.41 943.45 953.44 C 950.72 947.15 957.20 938.89 958.42 929.06 C 961.91 911.57 950.78 892.61 933.98 886.83 C 927.85 884.04 920.85 883.98 914.33 885.16 Z" />
<path fill="currentColor" opacity="1.00" d=" M 259.39 907.66 C 267.18 906.36 275.13 907.05 283.00 906.86 C 302.35 907.09 321.72 906.61 341.07 907.03 C 350.88 906.69 358.46 917.49 355.94 926.71 C 354.66 933.17 349.00 939.21 342.05 938.84 C 321.38 939.52 300.68 939.22 280.00 939.14 C 272.85 939.01 265.55 939.89 258.52 938.28 C 253.58 936.05 248.75 931.70 248.37 925.96 C 248.13 922.89 247.96 919.70 248.95 916.75 C 250.77 912.34 254.69 908.72 259.39 907.66 Z" />
<path fill="currentColor" opacity="1.00" d=" M 435.35 907.53 C 442.84 906.36 450.45 907.05 458.00 906.88 C 477.99 907.05 498.01 906.53 518.00 907.21 C 527.70 907.12 534.86 918.13 531.98 927.10 C 530.26 933.28 524.74 938.82 518.04 938.81 C 503.05 939.65 488.01 938.93 473.00 939.16 C 461.32 939.04 449.62 939.52 437.96 938.83 C 432.31 938.88 427.65 934.80 424.84 930.25 C 420.25 921.66 425.55 909.30 435.35 907.53 Z" />
</g>
</svg>
