<?xml version="1.0" encoding="UTF-8" ?>
<!DOCTYPE svg PUBLIC "-//W3C//DTD SVG 1.1//EN" "http://www.w3.org/Graphics/SVG/1.1/DTD/svg11.dtd">
<svg width="1000pt" height="1000pt" viewBox="0 0 1000 1000" version="1.1" xmlns="http://www.w3.org/2000/svg">
<g id="#770624ff">
<path fill="currentColor" opacity="1.00" d=" M 474.55 70.77 C 524.89 67.79 575.78 73.63 624.07 88.20 C 695.15 109.47 760.33 149.77 811.43 203.53 C 860.24 254.68 896.18 318.02 914.79 386.25 C 934.55 458.44 935.04 535.79 916.26 608.24 C 894.09 694.33 844.17 772.88 775.91 829.79 C 739.15 860.60 697.21 885.24 652.34 902.21 C 594.76 924.11 532.40 933.17 470.95 929.01 C 394.26 924.07 319.11 897.83 255.96 854.06 C 196.59 813.14 147.75 757.09 115.48 692.61 C 96.20 654.22 82.70 612.91 75.78 570.51 C 66.27 513.04 68.53 453.65 82.40 397.08 C 99.65 326.61 135.28 260.79 184.68 207.68 C 234.22 154.15 297.57 113.46 366.98 91.00 C 401.77 79.65 438.03 72.90 474.55 70.77 M 357.64 274.46 C 356.22 280.22 357.39 286.16 356.93 292.00 C 357.26 311.65 356.87 331.32 357.12 350.98 C 356.96 356.66 356.68 362.35 357.04 368.03 C 357.18 377.95 356.55 387.88 357.19 397.78 C 349.15 398.53 341.04 397.95 332.97 398.13 C 295.32 398.12 257.67 398.14 220.01 398.12 C 217.05 398.19 213.97 397.86 211.10 398.80 C 205.24 400.81 201.43 406.93 201.78 413.06 C 201.82 511.16 201.73 609.27 201.82 707.37 C 198.26 707.46 194.63 707.06 191.12 707.80 C 185.63 709.65 180.79 714.92 181.07 720.99 C 180.47 728.49 187.46 735.59 194.99 734.98 C 398.33 734.99 601.66 734.99 804.99 734.98 C 812.54 735.63 819.47 728.52 818.93 721.04 C 819.26 715.83 815.63 711.30 811.33 708.81 C 807.30 706.60 802.55 707.59 798.18 707.37 C 798.26 610.56 798.18 513.76 798.22 416.95 C 798.26 412.87 798.45 408.45 796.21 404.85 C 793.74 400.61 788.93 397.81 783.98 398.15 C 739.66 398.12 695.34 398.13 651.02 398.14 C 648.79 398.06 646.49 398.40 644.31 397.87 C 644.11 358.25 644.28 318.63 644.23 279.01 C 644.35 273.22 640.52 267.66 635.11 265.65 C 631.80 264.75 628.33 265.07 624.95 265.01 C 540.28 265.03 455.61 265.00 370.95 265.02 C 364.97 264.54 359.38 268.88 357.64 274.46 Z" />
<path fill="currentColor" opacity="1.00" d=" M 476.06 305.05 C 492.02 300.89 509.01 300.86 524.97 305.03 C 527.02 305.58 529.07 306.18 531.11 306.81 C 556.70 315.45 578.25 335.21 588.86 360.07 C 591.82 366.73 593.56 373.83 595.19 380.90 C 597.09 392.23 597.07 403.79 595.22 415.12 C 593.68 421.92 591.94 428.69 589.29 435.16 C 579.07 459.32 558.80 479.10 534.11 488.12 C 533.11 488.49 532.11 488.87 531.13 489.26 C 530.59 489.41 529.50 489.71 528.96 489.86 C 510.61 495.59 490.43 495.71 472.12 489.77 C 471.57 489.64 470.47 489.37 469.92 489.24 C 468.66 488.71 467.39 488.21 466.14 487.72 C 442.15 478.72 422.25 459.45 412.29 435.86 C 408.03 426.50 406.00 416.33 404.75 406.19 C 404.42 400.74 404.43 395.26 404.74 389.81 C 405.88 381.00 407.54 372.21 410.71 363.87 C 411.44 362.22 412.17 360.56 412.82 358.88 C 423.49 334.95 444.27 315.63 469.15 307.26 C 471.42 306.43 473.73 305.69 476.06 305.05 M 483.32 352.87 C 483.13 362.11 483.27 371.35 483.27 380.59 C 474.51 380.66 465.75 380.58 456.99 380.62 C 453.21 380.40 449.84 382.91 447.96 386.03 C 446.67 393.61 447.44 401.45 447.53 409.12 C 448.89 411.91 451.15 413.99 453.92 415.35 C 463.70 415.61 473.48 415.38 483.26 415.48 C 483.27 425.02 483.15 434.56 483.30 444.11 C 483.23 448.07 486.53 450.85 489.82 452.41 C 496.95 452.60 504.09 452.57 511.22 452.43 C 514.56 450.91 517.84 448.08 517.78 444.09 C 517.95 434.59 517.87 425.08 517.81 415.57 C 527.92 415.28 538.05 415.61 548.17 415.40 C 550.51 414.17 553.06 412.77 554.12 410.18 C 555.37 406.98 555.06 403.45 555.11 400.08 C 555.02 395.72 555.51 391.29 554.50 387.00 C 553.42 382.95 549.09 380.43 545.05 380.62 C 535.97 380.53 526.88 380.78 517.81 380.50 C 517.85 371.30 517.98 362.10 517.76 352.91 C 517.67 348.39 513.40 344.94 509.10 344.72 C 502.98 344.60 496.86 344.76 490.74 344.67 C 487.13 345.93 483.39 348.68 483.32 352.87 Z" />
<path fill="currentColor" opacity="1.00" d=" M 251.73 455.83 C 256.35 454.24 261.28 454.89 266.07 454.78 C 276.77 454.86 287.49 454.61 298.20 454.89 C 306.89 455.49 314.09 463.28 314.19 471.96 C 314.24 485.31 314.26 498.67 314.18 512.02 C 314.00 520.60 306.75 528.55 298.05 528.79 C 284.34 528.91 270.63 528.85 256.92 528.82 C 248.10 528.95 240.11 520.85 240.21 512.06 C 240.16 498.70 240.18 485.34 240.20 471.98 C 240.02 464.84 245.05 458.12 251.73 455.83 Z" />
<path fill="currentColor" opacity="1.00" d=" M 688.24 472.01 C 687.93 462.97 695.98 454.99 704.93 454.82 C 718.29 454.74 731.66 454.77 745.03 454.80 C 753.56 454.81 760.85 461.65 762.20 469.93 C 762.30 484.01 762.27 498.09 762.22 512.17 C 761.98 520.74 754.68 528.66 745.96 528.79 C 732.29 528.90 718.62 528.86 704.95 528.82 C 695.73 528.95 687.59 520.18 688.22 511.01 C 688.24 498.01 688.20 485.01 688.24 472.01 Z" />
<path fill="currentColor" opacity="1.00" d=" M 413.19 546.01 C 415.79 543.56 419.47 542.74 422.97 542.80 C 475.31 542.83 527.66 542.81 580.01 542.81 C 585.28 542.58 590.69 545.77 592.39 550.88 C 594.82 556.53 591.63 563.28 586.34 565.99 C 586.19 613.12 586.31 660.25 586.28 707.38 C 561.22 707.37 536.15 707.39 511.09 707.37 C 511.17 660.68 511.10 613.98 511.13 567.29 C 504.14 567.18 497.15 567.23 490.16 567.26 C 490.27 613.96 490.17 660.67 490.21 707.37 C 465.52 707.39 440.83 707.37 416.14 707.38 C 416.22 660.87 416.15 614.36 416.17 567.86 C 416.42 565.26 413.22 564.63 411.96 562.85 C 407.81 558.13 408.31 550.05 413.19 546.01 Z" />
<path fill="currentColor" opacity="1.00" d=" M 240.20 574.03 C 239.88 564.95 247.98 556.94 256.96 556.77 C 271.00 556.72 285.05 556.73 299.09 556.78 C 307.73 558.19 314.57 566.13 314.23 574.97 C 314.19 588.01 314.29 601.05 314.18 614.09 C 313.95 623.00 306.05 631.09 297.00 630.80 C 283.65 630.82 270.28 630.84 256.93 630.79 C 248.13 630.87 240.10 622.81 240.21 614.01 C 240.16 600.69 240.18 587.36 240.20 574.03 Z" />
<path fill="currentColor" opacity="1.00" d=" M 688.24 573.98 C 687.93 564.92 696.01 556.95 704.95 556.78 C 719.00 556.71 733.05 556.73 747.10 556.78 C 754.76 558.04 760.94 564.26 762.22 571.92 C 762.27 585.97 762.28 600.02 762.22 614.07 C 762.05 623.03 754.07 631.16 744.99 630.80 C 731.65 630.82 718.31 630.84 704.98 630.79 C 696.13 630.93 688.12 622.81 688.24 613.99 C 688.21 600.65 688.22 587.31 688.24 573.98 Z" />
</g>
<g id="#ffffffff">
<path fill="#ffffff" opacity="1.00" d=" M 357.64 274.46 C 359.38 268.88 364.97 264.54 370.95 265.02 C 455.61 265.00 540.28 265.03 624.95 265.01 C 628.33 265.07 631.80 264.75 635.11 265.65 C 640.52 267.66 644.35 273.22 644.23 279.01 C 644.28 318.63 644.11 358.25 644.31 397.87 C 646.49 398.40 648.79 398.06 651.02 398.14 C 695.34 398.13 739.66 398.12 783.98 398.15 C 788.93 397.81 793.74 400.61 796.21 404.85 C 798.45 408.45 798.26 412.87 798.22 416.95 C 798.18 513.76 798.26 610.56 798.18 707.37 C 802.55 707.59 807.30 706.60 811.33 708.81 C 815.63 711.30 819.26 715.83 818.93 721.04 C 819.47 728.52 812.54 735.63 804.99 734.98 C 601.66 734.99 398.33 734.99 194.99 734.98 C 187.46 735.59 180.47 728.49 181.07 720.99 C 180.79 714.92 185.63 709.65 191.12 707.80 C 194.63 707.06 198.26 707.46 201.82 707.37 C 201.73 609.27 201.82 511.16 201.78 413.06 C 201.43 406.93 205.24 400.81 211.10 398.80 C 213.97 397.86 217.05 398.19 220.01 398.12 C 257.67 398.14 295.32 398.12 332.97 398.13 C 341.04 397.95 349.15 398.53 357.19 397.78 C 356.55 387.88 357.18 377.95 357.04 368.03 C 356.68 362.35 356.96 356.66 357.12 350.98 C 356.87 331.32 357.26 311.65 356.93 292.00 C 357.39 286.16 356.22 280.22 357.64 274.46 M 476.06 305.05 C 473.73 305.69 471.42 306.43 469.15 307.26 C 444.27 315.63 423.49 334.95 412.82 358.88 C 412.17 360.56 411.44 362.22 410.71 363.87 C 407.54 372.21 405.88 381.00 404.74 389.81 C 404.43 395.26 404.42 400.74 404.75 406.19 C 406.00 416.33 408.03 426.50 412.29 435.86 C 422.25 459.45 442.15 478.72 466.14 487.72 C 467.39 488.21 468.66 488.71 469.92 489.24 C 470.47 489.37 471.57 489.64 472.12 489.77 C 490.43 495.71 510.61 495.59 528.96 489.86 C 529.50 489.71 530.59 489.41 531.13 489.26 C 532.11 488.87 533.11 488.49 534.11 488.12 C 558.80 479.10 579.07 459.32 589.29 435.16 C 591.94 428.69 593.68 421.92 595.22 415.12 C 597.07 403.79 597.09 392.23 595.19 380.90 C 593.56 373.83 591.82 366.73 588.86 360.07 C 578.25 335.21 556.70 315.45 531.11 306.81 C 529.07 306.18 527.02 305.58 524.97 305.03 C 509.01 300.86 492.02 300.89 476.06 305.05 M 251.73 455.83 C 245.05 458.12 240.02 464.84 240.20 471.98 C 240.18 485.34 240.16 498.70 240.21 512.06 C 240.11 520.85 248.10 528.95 256.92 528.82 C 270.63 528.85 284.34 528.91 298.05 528.79 C 306.75 528.55 314.00 520.60 314.18 512.02 C 314.26 498.67 314.24 485.31 314.19 471.96 C 314.09 463.28 306.89 455.49 298.20 454.89 C 287.49 454.61 276.77 454.86 266.07 454.78 C 261.28 454.89 256.35 454.24 251.73 455.83 M 688.24 472.01 C 688.20 485.01 688.24 498.01 688.22 511.01 C 687.59 520.18 695.73 528.95 704.95 528.82 C 718.62 528.86 732.29 528.90 745.96 528.79 C 754.68 528.66 761.98 520.74 762.22 512.17 C 762.27 498.09 762.30 484.01 762.20 469.93 C 760.85 461.65 753.56 454.81 745.03 454.80 C 731.66 454.77 718.29 454.74 704.93 454.82 C 695.98 454.99 687.93 462.97 688.24 472.01 M 413.19 546.01 C 408.31 550.05 407.81 558.13 411.96 562.85 C 413.22 564.63 416.42 565.26 416.17 567.86 C 416.15 614.36 416.22 660.87 416.14 707.38 C 440.83 707.37 465.52 707.39 490.21 707.37 C 490.17 660.67 490.27 613.96 490.16 567.26 C 497.15 567.23 504.14 567.18 511.13 567.29 C 511.10 613.98 511.17 660.68 511.09 707.37 C 536.15 707.39 561.22 707.37 586.28 707.38 C 586.31 660.25 586.19 613.12 586.34 565.99 C 591.63 563.28 594.82 556.53 592.39 550.88 C 590.69 545.77 585.28 542.58 580.01 542.81 C 527.66 542.81 475.31 542.83 422.97 542.80 C 419.47 542.74 415.79 543.56 413.19 546.01 M 240.20 574.03 C 240.18 587.36 240.16 600.69 240.21 614.01 C 240.10 622.81 248.13 630.87 256.93 630.79 C 270.28 630.84 283.65 630.82 297.00 630.80 C 306.05 631.09 313.95 623.00 314.18 614.09 C 314.29 601.05 314.19 588.01 314.23 574.97 C 314.57 566.13 307.73 558.19 299.09 556.78 C 285.05 556.73 271.00 556.72 256.96 556.77 C 247.98 556.94 239.88 564.95 240.20 574.03 M 688.24 573.98 C 688.22 587.31 688.21 600.65 688.24 613.99 C 688.12 622.81 696.13 630.93 704.98 630.79 C 718.31 630.84 731.65 630.82 744.99 630.80 C 754.07 631.16 762.05 623.03 762.22 614.07 C 762.28 600.02 762.27 585.97 762.22 571.92 C 760.94 564.26 754.76 558.04 747.10 556.78 C 733.05 556.73 719.00 556.71 704.95 556.78 C 696.01 556.95 687.93 564.92 688.24 573.98 Z" />
<path fill="#ffffff" opacity="1.00" d=" M 483.32 352.87 C 483.39 348.68 487.13 345.93 490.74 344.67 C 496.86 344.76 502.98 344.60 509.10 344.72 C 513.40 344.94 517.67 348.39 517.76 352.91 C 517.98 362.10 517.85 371.30 517.81 380.50 C 526.88 380.78 535.97 380.53 545.05 380.62 C 549.09 380.43 553.42 382.95 554.50 387.00 C 555.51 391.29 555.02 395.72 555.11 400.08 C 555.06 403.45 555.37 406.98 554.12 410.18 C 553.06 412.77 550.51 414.17 548.17 415.40 C 538.05 415.61 527.92 415.28 517.81 415.57 C 517.87 425.08 517.95 434.59 517.78 444.09 C 517.84 448.08 514.56 450.91 511.22 452.43 C 504.09 452.57 496.95 452.60 489.82 452.41 C 486.53 450.85 483.23 448.07 483.30 444.11 C 483.15 434.56 483.27 425.02 483.26 415.48 C 473.48 415.38 463.70 415.61 453.92 415.35 C 451.15 413.99 448.89 411.91 447.53 409.12 C 447.44 401.45 446.67 393.61 447.96 386.03 C 449.84 382.91 453.21 380.40 456.99 380.62 C 465.75 380.58 474.51 380.66 483.27 380.59 C 483.27 371.35 483.13 362.11 483.32 352.87 Z" />
</g>
</svg>
